<svg width="117" height="28" viewBox="0 0 117 28" fill="none" xmlns="http://www.w3.org/2000/svg">
<path fill-rule="evenodd" clip-rule="evenodd" d="M116.788 1.24619C116.387 0.662196 115.91 0.261782 113.919 0.109943C113.397 0.070079 111.673 0.0134557 108.772 0.0134557C101.148 0.0134557 95.9665 2.32633 93.3144 6.89342C94.0454 2.2989 89.5679 0 79.8708 0C68.487 0 61.378 4.58436 58.5474 13.7515C57.4944 17.1611 57.3873 19.9533 58.2145 22.1354L55.5276 22.3162C53.4281 22.4772 50.6663 22.6184 48.9729 22.6184C44.808 22.6184 42.222 21.9201 41.2221 20.5228C40.3258 19.268 40.4139 16.9379 41.4605 13.5405C43.1988 7.91211 47.5033 5.37859 54.3823 5.37859C57.9477 5.37148 61.4199 5.75336 61.4219 5.75336V5.75209C61.9 5.72213 62.1118 5.22472 62.0585 4.81211L61.9894 4.27408L61.7454 2.38219C61.5842 1.13929 60.6589 0.401432 58.9687 0.173421C57.4234 0.0693173 56.2734 0 54.5813 0C54.5496 0 54.5184 0.00101508 54.4881 0.00101508C45.4967 0.0213279 39.2309 2.9738 35.6896 8.85691C36.9909 2.95222 32.8341 0 23.2038 0C17.8514 0 14.013 0.150821 11.6854 0.454498C9.90066 0.676162 8.81291 1.41657 8.41884 2.67012L7.65685 5.10056C7.51796 5.54592 7.73252 5.76657 8.30357 5.76657L8.32058 5.76352C8.74385 5.70994 10.3729 5.54998 13.1558 5.32679C16.8372 5.03276 19.5686 4.88448 21.3624 4.88448C26.6616 4.88448 28.8927 6.21192 28.0621 8.86351C27.8813 9.45081 27.4779 9.81492 26.8601 9.95609C21.8482 10.7866 17.8691 11.3859 14.9263 11.7487C6.64477 12.8024 1.86033 15.3804 0.571476 19.4902C-1.196 25.1379 3.23322 27.9629 13.8533 27.9629C19.1504 27.9629 23.5971 27.6521 27.1915 27.0486C29.2626 26.7012 30.3123 26.1703 30.7285 24.8363L32.7034 18.5408C32.4977 24.8317 36.9104 28 45.9489 28C49.8621 28 53.5725 27.871 55.3238 27.5668C57.1771 27.2454 58.063 26.8427 58.472 25.4444L58.8729 23.4601C60.7983 26.4618 65.0237 27.9629 71.5461 27.9629C78.4251 27.9629 82.4369 27.7697 83.5812 27.3863C84.54 27.0816 85.1321 26.5865 85.3431 25.8984C85.3837 25.7757 85.4058 25.6452 85.4272 25.5035L86.2511 22.8309C86.3951 22.3667 86.1798 22.1446 85.6151 22.1641L81.2115 22.3754C78.273 22.5356 75.9713 22.6186 74.3107 22.6186C71.1843 22.6186 69.0398 22.4071 67.867 21.98C66.1277 21.311 65.3004 19.9774 65.3791 17.9703L79.3257 16.1822C85.5767 15.3834 89.7591 13.4593 91.877 10.4103L87.1515 26.8681C87.0616 27.1789 87.0979 27.4287 87.2558 27.6135C87.4325 27.8197 87.7339 27.9187 88.1798 27.9187H93.9512C94.9597 27.9187 95.32 27.398 95.4457 26.9618L100.547 9.1969C101.219 6.85914 103.369 5.72213 107.12 5.72213C110.506 5.72213 113.058 5.75209 114.69 5.81202C114.734 5.81506 114.775 5.81709 114.817 5.81709C115.136 5.81709 115.711 5.70105 115.997 4.9284L116.894 2.48934C117.064 2.01757 117.03 1.60014 116.788 1.24619ZM23.75 22.6181C21.9464 22.9002 19.3588 23.0419 15.9778 23.0419C10.1119 23.0419 7.5459 21.8584 8.28909 19.4899C8.82281 17.7908 10.3592 16.7685 12.9128 16.4247L26.2568 14.6324L23.75 22.6181ZM85.4267 8.22543C84.8655 10.0467 82.254 11.2929 77.5993 11.9625L66.4826 13.5405L66.7642 12.6305C67.6841 9.63642 68.9951 7.59421 70.6849 6.51078C72.3739 5.42912 75.1257 4.88448 78.938 4.88448C83.9522 4.88448 86.1135 6.00118 85.4267 8.22543Z" fill="#78BC27"/>
</svg>
