<svg width="53" height="52" viewBox="0 0 53 52" fill="none" xmlns="http://www.w3.org/2000/svg">
<path d="M38.641 27.9903C38.5841 22.2742 43.3023 19.5326 43.5133 19.3941C40.8616 15.517 36.7304 14.985 35.2601 14.9245C31.7472 14.5677 28.4021 16.9937 26.6199 16.9937C24.8414 16.9937 22.0879 14.9768 19.1748 15.0281C15.3427 15.085 11.8104 17.257 9.83842 20.6874C5.8586 27.5913 8.82031 37.8229 12.6983 43.4262C14.5942 46.165 16.8552 49.2469 19.8215 49.1341C22.6804 49.0213 23.7591 47.285 27.2152 47.285C30.6713 47.285 31.6417 49.1341 34.6658 49.0763C37.7403 49.0203 39.6894 46.2852 41.5697 43.5354C43.7462 40.3535 44.6424 37.2726 44.6956 37.1167C44.6286 37.0855 38.7024 34.8153 38.641 27.9903Z" fill="black"/>
<path d="M32.9589 11.2165C34.5319 9.30683 35.5978 6.65331 35.3079 4.01172C33.0378 4.10344 30.2898 5.52055 28.6599 7.42837C27.1997 9.12156 25.9229 11.8173 26.265 14.4112C28.7975 14.6075 31.3804 13.1225 32.9589 11.2165Z" fill="black"/>
</svg>
