<svg width="54" height="53" viewBox="0 0 54 53" fill="none" xmlns="http://www.w3.org/2000/svg">
<path fill-rule="evenodd" clip-rule="evenodd" d="M45.4216 7.6873C41.2678 3.50575 35.6656 0.522258 27.8082 0.0791016H26.1928C18.387 0.508777 12.7267 3.51379 8.57956 7.66124C4.45137 11.7894 1.36423 17.3617 0.971367 25.2224C0.975672 25.2528 0.96559 25.2688 0.945312 25.2745V26.8379C1.35562 34.7287 4.42599 40.2436 8.57956 44.4252C12.733 48.6066 18.3364 51.589 26.1929 52.0332H27.7822C35.795 51.639 41.1035 48.5407 45.4218 44.4511C49.5323 40.1459 52.6567 34.8547 53.0557 26.8379V25.2745C52.6454 17.3836 49.575 11.8687 45.4216 7.6873ZM48.2876 34.9411C46.0882 40.3314 42.1194 44.2379 37.0836 46.7701C34.5144 48.062 31.413 48.8664 27.8342 49.0369C24.1031 49.2145 20.7897 48.4215 18.1156 47.2913C12.7083 45.0053 8.8008 41.2441 6.23453 36.1396C4.93474 33.5544 4.11209 30.5215 3.94172 26.9161C3.67143 21.1971 5.53785 16.8359 7.6937 13.4455C9.90212 9.97207 13.0609 7.26238 16.8911 5.36843C18.1494 4.74618 19.5378 4.21953 21.0859 3.80504C22.6458 3.38725 24.355 3.16182 26.1669 3.0755C29.8526 2.90003 33.2942 3.71803 35.9378 4.82128C38.6624 5.95828 40.9744 7.53154 42.8941 9.38085C46.7747 13.1185 49.7153 18.0199 50.0594 25.2485C50.2412 29.0643 49.4001 32.2144 48.2876 34.9411ZM35.1297 27.3329V19.9593H31.2214V23.6592C29.4449 24.792 27.6849 25.9415 25.8801 27.0462C25.5963 26.8612 25.2793 26.7094 25.0205 26.499C26.7665 25.3705 28.4697 24.1986 30.2315 23.0858C29.5034 22.5369 28.727 22.0365 27.9384 21.5485C26.1801 22.6738 24.4145 23.7914 22.6493 24.9097C22.3836 24.7063 22.0814 24.5397 21.8156 24.3365C23.5662 23.2209 25.2921 22.0807 27.0527 20.9753C26.2734 20.3824 25.4289 19.8544 24.6034 19.3077C22.3531 20.7488 20.1222 22.2089 17.8549 23.6329C17.3209 22.0195 16.1696 20.7239 14.546 20.2197C12.7097 19.6493 10.1662 20.1127 7.84992 19.9592V30.8242C9.70286 30.7383 11.5305 30.9393 13.1391 30.8242C15.7183 30.6392 17.2772 29.0743 17.9334 26.9942C20.199 28.4717 22.3862 30.0279 24.6556 31.5015C26.8349 30.1112 29.0549 28.6228 31.2214 27.3066V30.8242H38.5951V27.3588C37.4485 27.3416 36.2329 27.3936 35.1297 27.3329ZM13.7642 26.9943C13.2147 27.4175 12.5067 27.3635 11.5757 27.3588V23.4507C11.5734 23.4137 11.5714 23.3769 11.6017 23.3724C12.7301 23.3002 13.5432 23.4167 14.0249 23.9717C14.7465 24.8034 14.5819 26.3644 13.7642 26.9943ZM43.5195 19.9593H39.6113C39.5807 19.9636 39.5829 20.0003 39.5852 20.0373V30.8243H46.9588V27.3588H43.5196V19.9593H43.5195Z" fill="#0083CA"/>
</svg>
