<svg width="53" height="52" viewBox="0 0 53 52" fill="none" xmlns="http://www.w3.org/2000/svg">
<path fill-rule="evenodd" clip-rule="evenodd" d="M26.1938 2.22461C25.6241 2.22461 25.0595 2.24665 24.4998 2.28788L20.0198 14.9527H23.9439C26.7712 14.9527 27.9226 17.1957 27.07 19.741L21.2947 36.0445H15.5216L21.8775 18.1036H18.902L12.5479 36.0445H6.72205L18.1824 3.67248C9.24394 7.01958 2.83789 15.7959 2.83789 26.0501C2.83789 37.1238 10.3094 46.4746 20.3731 49.1244L32.4967 14.8604H41.9773C43.9362 14.8604 46.3429 16.1785 45.3287 19.2463C44.311 22.3157 40.6475 32.5276 39.9715 34.4745C39.2946 36.4217 37.6686 36.8128 36.3814 36.8128H30.5544L25.9328 49.872L26.1939 49.8754C39.0577 49.8754 49.5499 39.1724 49.5499 26.05C49.5498 12.9273 39.0576 2.22461 26.1938 2.22461ZM40.4728 18.0524C40.4903 17.9868 40.4903 17.9301 40.4728 17.8821C40.4279 17.7928 40.328 17.7416 40.202 17.7282H37.341C37.1171 17.743 36.9645 17.8215 36.8734 17.9553L35.8873 20.742L31.1864 34.0295H34.8186L35.8873 31.0089L40.4728 18.0524Z" fill="#005AA9"/>
</svg>
