<svg width="145" height="24" viewBox="0 0 145 24" fill="none" xmlns="http://www.w3.org/2000/svg">
<path fill-rule="evenodd" clip-rule="evenodd" d="M35.5785 17.996L35.6098 17.9191C35.6098 17.9191 35.5651 17.945 35.4795 17.9913L35.5785 17.996ZM23.6374 20.4773C23.6374 20.4773 22.204 20.2362 22.204 18.9324L22.2874 18.4704L24.2987 17.996L38.6422 14.6162C38.6422 14.6162 42.1337 7.00097 28.8107 7.18401C15.4893 7.36737 13.7451 15.8079 13.5605 17.5524C13.547 17.6845 13.538 17.8338 13.5367 17.9947L13.7451 18.4473C13.7344 20.3942 14.749 23.7049 23.6649 23.7899C23.6649 23.7899 31.5641 23.5181 33.8634 22.2325L35.5789 17.996H35.4798C34.5262 18.511 28.5105 21.6349 23.6374 20.4773ZM23.5103 13.2466C23.5103 13.2466 24.0919 9.76003 28.0236 9.7038C31.9568 9.64726 31.1053 13.0067 31.1053 13.0067L22.4883 17.3441L23.5103 13.2466ZM7.12683 0.210938L0.511719 23.2401H9.79374C11.998 15.5639 14.2036 7.88775 16.4082 0.210938H7.12683ZM111.337 7.77531L104.245 17.9963L103.872 18.5351L103.806 17.9963L102.551 7.77531H93.9479L95.187 17.9963L95.823 23.2401H109.748L113.325 17.9963L120.295 7.77531H111.337ZM80.832 7.26554C67.147 7.77531 66.2246 16.1399 66.2246 16.1399C66.2246 16.1399 65.9025 16.9299 65.9082 17.996C65.9241 20.3583 67.5352 24.0741 77.6944 23.7233C85.8157 23.4425 89.6627 20.546 91.4799 17.9935C92.9699 15.9032 93.097 14.0412 93.097 14.0412C93.097 14.0412 94.5161 6.75546 80.832 7.26554ZM83.4577 14.0412C83.4577 14.0412 83.2965 16.1431 82.3266 17.996C81.5479 19.4847 80.2482 20.8097 78.092 20.7613C78.092 20.7613 75.6434 20.9524 75.6409 18.0019C75.6409 17.4575 75.7243 16.8053 75.9208 16.0269L76.8426 13.3034C76.8426 13.3034 77.5803 10.058 80.8317 10.1142C84.0827 10.1717 83.6847 12.6803 83.4577 14.0412ZM62.9739 8.17325C62.9739 8.17325 58.644 6.98223 52.6536 7.32114C46.6635 7.66129 42.3904 8.45593 42.3904 8.45593L39.5595 17.996L38.004 23.2398H47.5294L49.1068 17.996L51.461 10.1714C51.461 10.1714 57.0975 9.36302 56.3597 12.2698L54.6923 17.996L53.1649 23.2398H62.5191L64.0852 17.996L65.8273 12.1567C65.8273 12.1567 66.963 8.96663 62.9739 8.17325ZM131.892 7.26554C118.208 7.77531 117.284 16.1399 117.284 16.1399C117.284 16.1399 116.963 16.9299 116.969 17.996C116.983 20.3583 118.595 24.0741 128.754 23.7233C136.876 23.4425 140.723 20.546 142.54 17.9935C144.03 15.9032 144.157 14.0412 144.157 14.0412C144.157 14.0412 145.577 6.75546 131.892 7.26554ZM134.518 14.0412C134.518 14.0412 134.358 16.1431 133.386 17.996C132.608 19.4847 131.308 20.8097 129.153 20.7613C129.153 20.7613 126.704 20.9524 126.701 18.0019C126.701 17.4575 126.785 16.8053 126.982 16.0269L127.903 13.3034C127.903 13.3034 128.641 10.058 131.892 10.1142C135.143 10.1717 134.747 12.6803 134.518 14.0412Z" fill="#00387D"/>
</svg>
