<svg width="85" height="42" viewBox="0 0 85 42" fill="none" xmlns="http://www.w3.org/2000/svg">
<path fill-rule="evenodd" clip-rule="evenodd" d="M54.6233 10.5458H49.1133V31.306H64.1191V26.7749H54.6235V10.5458H54.6233ZM75.7359 19.5811V23.2498H79.9406C79.9406 23.2498 79.9813 27.8683 75.6411 27.8683C74.5385 27.8683 73.5565 27.4682 72.7999 26.7128C71.6235 25.5362 71.001 23.5543 71.001 20.9838C71.001 16.7271 72.6928 14.1858 75.5259 14.1858C77.2957 14.1858 78.6261 15.2725 78.9668 16.9192H84.8116C84.5081 14.5265 83.8513 13.2793 82.25 12.0081C80.5288 10.6752 78.3144 9.99902 75.6705 9.99902C72.531 9.99902 69.9087 10.9626 68.086 12.7854C66.1819 14.6896 65.1748 17.4948 65.1748 20.8975C65.1748 24.5323 66.2402 27.6003 68.1742 29.5333C69.6915 31.0506 71.7161 31.853 74.0304 31.853C79.1125 31.853 80.2815 28.8068 80.2815 28.8068V31.3062H84.8709V19.5811H75.7359Z" fill="#707070"/>
<path fill-rule="evenodd" clip-rule="evenodd" d="M21.5195 0C9.9218 0 0.519531 9.40246 0.519531 21.0002C0.519531 32.5977 9.9218 42 21.5195 42C33.1176 42 42.5197 32.5977 42.5197 21.0002C42.5197 9.40246 33.1176 0 21.5195 0ZM26.6335 28.3899V30.0018H22.2841V30.0133H20.6717V11.9545H22.2841V28.3901H26.6335V28.3899ZM21.5195 38.5798C11.8111 38.5798 3.94012 30.7094 3.94012 21.0002C3.94012 11.2912 11.8113 3.42079 21.5195 3.42079C21.7759 3.42079 22.0309 3.42615 22.2845 3.43728L22.2828 5.038C22.0297 5.02592 21.7755 5.02036 21.5197 5.02036C12.6944 5.02036 5.5397 12.1746 5.5397 21.0004C5.5397 29.8263 12.6944 36.9806 21.5197 36.9806C30.1049 36.9806 37.1084 30.2119 37.4842 21.7192L37.4882 21.6724H26.6593V20.0602H39.075C39.0917 20.3723 39.0997 20.6844 39.0997 21.0004C39.0993 30.7096 31.2286 38.5798 21.5195 38.5798ZM17.4319 14.35C17.4319 15.7139 16.326 16.8198 14.9621 16.8198C13.5978 16.8198 12.4923 15.7139 12.4923 14.35C12.4923 12.986 13.5978 11.8801 14.9621 11.8801C16.326 11.8803 17.4319 12.986 17.4319 14.35Z" fill="#C6004D"/>
</svg>
