<svg width="184" height="28" viewBox="0 0 184 28" fill="none" xmlns="http://www.w3.org/2000/svg">
<path d="M151.931 0.874906L152.281 21.4375H152.106L146.156 0.874906H136.356V26.7747H142.831L142.481 5.51282H142.657L149.044 26.7747H158.406V0.874906H151.931ZM28.6426 0.874906L23.7428 27.0381H30.8306L34.418 3.23776H34.5928L38.0932 27.0373H45.0932L40.2805 0.874906H28.6426ZM68.1927 0.874906L64.9557 20.8252H64.7801L61.5431 0.874906H50.8679L50.3427 27.0381H56.9052L57.0808 3.49962H57.1678L61.5424 27.0373H68.1927L72.568 3.50038H72.7436L72.9176 27.0373H79.4802L78.8679 0.874906H68.1927ZM12.7179 19.5998C12.9798 20.2121 12.8928 21.0878 12.805 21.5252C12.6301 22.4001 12.0179 23.2751 10.2673 23.2751C8.60528 23.2751 7.64258 22.3131 7.64258 20.9122V18.3753H0.642578V20.3877C0.642578 26.2502 5.27973 28 10.1803 28C14.9052 28 18.8423 26.3372 19.4553 22.0497C19.805 19.7747 19.5423 18.2875 19.4553 17.7622C18.23 12.2502 8.25562 10.6752 7.55478 7.61228C7.46775 7.08703 7.46775 6.56255 7.55478 6.21213C7.73037 5.33723 8.34266 4.46232 9.91764 4.46232C11.4926 4.46232 12.3683 5.42425 12.3683 6.82517V8.40016H18.9301V6.56255C18.9301 0.874905 13.7677 0 10.0925 0C5.45532 0 1.60528 1.57498 0.905202 5.77468C0.729611 6.9122 0.642578 7.9627 0.992235 9.27506C2.04273 14.7001 11.4063 16.2751 12.7179 19.5998ZM97.8562 19.5998C98.1181 20.2129 98.0303 21 97.9433 21.5252C97.7677 22.4001 97.1554 23.2751 95.4056 23.2751C93.7428 23.2751 92.7809 22.3131 92.7809 20.9122V18.3753H85.7801V20.3877C85.7801 26.1624 90.3302 27.913 95.2308 27.913C99.9557 27.913 103.806 26.338 104.418 21.9627C104.768 19.6876 104.506 18.2875 104.418 17.6752C103.368 12.2502 93.4802 10.5874 92.7809 7.61304C92.6931 7.08779 92.6931 6.56255 92.7809 6.21213C92.9557 5.33723 93.568 4.46232 95.143 4.46232C96.6301 4.46232 97.5936 5.42425 97.5936 6.82517V8.40016H104.068V6.56255C104.068 0.874905 98.993 0 95.3186 0C90.6806 0 86.9176 1.48719 86.2183 5.77468C86.0427 6.9122 86.0427 7.9627 86.3054 9.27506C87.3559 14.7001 96.5431 16.1873 97.8562 19.5998ZM119.906 23.1002C121.744 23.1002 122.268 21.8749 122.443 21.1748C122.531 20.913 122.531 20.4747 122.531 20.2129V0.874906H129.18V19.6876C129.18 20.2129 129.18 21.1748 129.093 21.4375C128.656 26.338 124.806 27.913 119.993 27.913C115.181 27.913 111.331 26.338 110.893 21.4375C110.893 21.1748 110.806 20.2129 110.806 19.6876V0.874906H117.455V20.2129C117.455 20.5625 117.455 20.9122 117.543 21.1748C117.543 21.8749 118.068 23.1002 119.906 23.1002ZM174.506 22.8376C176.431 22.8376 177.043 21.6123 177.218 20.9122C177.306 20.6503 177.306 20.2121 177.306 19.9503V16.1873H174.594V12.3372H183.869V19.338C183.869 19.8625 183.869 20.2121 183.781 21.0878C183.343 25.8998 179.231 27.5625 174.594 27.5625C169.956 27.5625 165.844 25.8998 165.406 21.0878C165.319 20.2121 165.319 19.8625 165.319 19.3372V8.31312C165.319 7.87491 165.406 7 165.406 6.56255C166.019 1.66201 169.956 0.0870341 174.594 0.0870341C179.231 0.0870341 183.256 1.66201 183.781 6.56255C183.869 7.34966 183.869 8.31236 183.869 8.31236V9.18726H177.306V7.70008C177.306 7.70008 177.306 7.08704 177.218 6.73738C177.131 6.1251 176.606 4.81274 174.594 4.81274C172.669 4.81274 172.143 6.0373 171.969 6.73738C171.881 7.08704 171.881 7.52525 171.881 7.9627V19.9503C171.881 20.2999 171.881 20.6496 171.969 20.9122C171.969 21.6123 172.669 22.8376 174.506 22.8376Z" fill="black"/>
</svg>
